<?xml version="1.0" encoding="utf-8"?>
<!-- Generator: Adobe Illustrator 19.0.0, SVG Export Plug-In . SVG Version: 6.00 Build 0)  -->
<svg version="1.1" xmlns="http://www.w3.org/2000/svg"  x="0px" y="0px"
	 viewBox="-126 218.6 357.4 357.4" style="enable-background:new -126 218.6 357.4 357.4;" xml:space="preserve">
<style type="text/css">
	.st0{fill:#FFFFFF;stroke:#FFFFFF;stroke-miterlimit:10;}
	.st1{fill:#231F20;stroke:#231F20;stroke-miterlimit:10;}
	.st2{fill:#010002;stroke:#FFFFFF;stroke-miterlimit:10;}
	.st3{fill:#FFFFFF;stroke:#000000;stroke-miterlimit:10;}
</style>
<g id="Layer_2">
	<polyline class="st0" points="58.6,362.3 52.7,351.9 46.7,362.3 58.6,362.3 	"/>
	<rect x="46.7" y="362.3" class="st0" width="11.9" height="213.7"/>
	<path class="st1" d="M60.3,397"/>
</g>
<g id="Capa_1">
	<g>
		<polygon class="st2" points="52.7,351.9 -103.5,279.7 52.7,218.6 208.8,279.7 		"/>
		<polygon class="st2" points="-109.2,290.2 46.7,362.3 46.7,576 -109.2,492.9 		"/>
		<polygon class="st2" points="214.5,492.9 58.6,576 58.6,362.3 214.5,290.2 		"/>
	</g>
	<polygon class="st3" points="-103.5,279.7 12.4,234.4 18.3,238.4 -33.3,260.6 -18.5,267.6 -36,276.1 -12.8,286.9 -23.3,292.6 
		16.5,310.6 8.3,315.6 37,328.6 22.9,338.1 	"/>
	<polygon class="st3" points="58.6,402.3 58.6,576 78,565.7 78,538.3 92,531.3 92,511 114,501.3 114,464 90.3,469.6 90.3,439.3 
		72.3,443 72.3,400 	"/>
	<polygon class="st3" points="-109.2,290.2 -109.2,492.9 46.7,576 46.7,362.3 	"/>
	<polygon class="st2" points="16,517 16,472 -21,459.3 -21,502.3 	"/>
	<polygon class="st0" points="64.5,241.4 37,254.1 64.5,270.4 90.8,255.9 	"/>
</g>
<g id="Layer_3">
	<line class="st1" x1="58.6" y1="402" x2="58.6" y2="362"/>
	<polyline class="st1" points="58.6,362.3 59,362.1 59.4,362.9 	"/>
	<path class="st1" d="M58.5,362"/>
</g>
</svg>
